<svg width="106" height="25" viewBox="0 0 106 25" fill="none" xmlns="http://www.w3.org/2000/svg">
<path d="M2.85791 4.40289H4.54208C5.29445 4.40289 5.67063 4.40289 5.95385 4.6072C6.23707 4.81151 6.35598 5.16823 6.59379 5.88168L7.18185 7.64585" stroke="#141C24" stroke-width="1.5" stroke-linecap="round"/>
<path d="M17.9917 18.4557H7.77636C7.61962 18.4557 7.5407 18.4557 7.48017 18.4492C7.33008 18.4325 7.18516 18.3845 7.05476 18.3083C6.92435 18.2321 6.81136 18.1295 6.72306 18.0069C6.63476 17.8844 6.57311 17.7448 6.54209 17.597C6.51107 17.4492 6.51137 17.2965 6.54295 17.1488C6.56791 17.0531 6.59712 16.9586 6.63051 16.8656C6.68673 16.6991 6.71375 16.6159 6.7451 16.5413C6.89898 16.1727 7.15194 15.854 7.47594 15.6204C7.79994 15.3869 8.1823 15.2477 8.58061 15.2182C8.6606 15.2128 8.74816 15.2128 8.92328 15.2128H14.7487" stroke="#141C24" stroke-width="1.5" stroke-linecap="round" stroke-linejoin="round"/>
<path d="M14.4019 15.2128H11.1147C9.73099 15.2128 9.03916 15.2128 8.49867 14.856C7.95709 14.4993 7.68469 13.8637 7.13987 12.5925L6.95718 12.1666C6.08159 10.1235 5.64487 9.10412 6.12482 8.37446C6.60694 7.64587 7.7182 7.64587 9.93854 7.64587H15.6461C18.1324 7.64587 19.3745 7.64587 19.8436 8.45337C20.3117 9.26087 19.6955 10.3397 18.4621 12.4973L18.1562 13.0346C17.5487 14.0972 17.2449 14.629 16.7412 14.9209C16.2385 15.2128 15.6256 15.2128 14.4019 15.2128Z" stroke="#141C24" stroke-width="1.5" stroke-linecap="round"/>
<path d="M17.4511 22.2391C18.0481 22.2391 18.5321 21.7551 18.5321 21.1581C18.5321 20.5611 18.0481 20.0771 17.4511 20.0771C16.8541 20.0771 16.3701 20.5611 16.3701 21.1581C16.3701 21.7551 16.8541 22.2391 17.4511 22.2391Z" fill="#141C24"/>
<path d="M7.72259 22.2391C8.3196 22.2391 8.80357 21.7551 8.80357 21.1581C8.80357 20.5611 8.3196 20.0771 7.72259 20.0771C7.12558 20.0771 6.6416 20.5611 6.6416 21.1581C6.6416 21.7551 7.12558 22.2391 7.72259 22.2391Z" fill="#141C24"/>
<path d="M48.1818 18.571L44.2727 13.3551H43.0341V18.571H41.2784V6.93468H43.0341V11.8495H43.608L48.0057 6.93468H50.1477L45.4943 12.1449L50.3239 18.571H48.1818ZM54.8494 18.7472C54.0313 18.7472 53.3172 18.5597 52.7074 18.1847C52.0975 17.8097 51.6241 17.2851 51.2869 16.6108C50.9498 15.9366 50.7812 15.1487 50.7812 14.2472C50.7812 13.3419 50.9498 12.5502 51.2869 11.8722C51.6241 11.1942 52.0975 10.6676 52.7074 10.2926C53.3172 9.91764 54.0313 9.73014 54.8494 9.73014C55.6676 9.73014 56.3816 9.91764 56.9915 10.2926C57.6013 10.6676 58.0748 11.1942 58.4119 11.8722C58.7491 12.5502 58.9176 13.3419 58.9176 14.2472C58.9176 15.1487 58.7491 15.9366 58.4119 16.6108C58.0748 17.2851 57.6013 17.8097 56.9915 18.1847C56.3816 18.5597 55.6676 18.7472 54.8494 18.7472ZM54.8551 17.321C55.3854 17.321 55.8248 17.1809 56.1733 16.9006C56.5218 16.6203 56.7794 16.2472 56.946 15.7813C57.1165 15.3154 57.2017 14.8021 57.2017 14.2415C57.2017 13.6847 57.1165 13.1733 56.946 12.7074C56.7794 12.2377 56.5218 11.8608 56.1733 11.5767C55.8248 11.2926 55.3854 11.1506 54.8551 11.1506C54.321 11.1506 53.8778 11.2926 53.5256 11.5767C53.1771 11.8608 52.9176 12.2377 52.7472 12.7074C52.5805 13.1733 52.4972 13.6847 52.4972 14.2415C52.4972 14.8021 52.5805 15.3154 52.7472 15.7813C52.9176 16.2472 53.1771 16.6203 53.5256 16.9006C53.8778 17.1809 54.321 17.321 54.8551 17.321ZM60.8139 21.8438V9.84377H62.473V11.2585H62.6151C62.7135 11.0767 62.8556 10.8665 63.0412 10.6279C63.2268 10.3892 63.4844 10.1809 63.8139 10.0029C64.1435 9.82104 64.5791 9.73014 65.1207 9.73014C65.8253 9.73014 66.4541 9.90817 67.0071 10.2642C67.5601 10.6203 67.9938 11.1335 68.3082 11.804C68.6264 12.4745 68.7855 13.2813 68.7855 14.2245C68.7855 15.1676 68.6283 15.9763 68.3139 16.6506C67.9995 17.321 67.5677 17.8381 67.0185 18.2017C66.4692 18.5616 65.8423 18.7415 65.1378 18.7415C64.6075 18.7415 64.1738 18.6525 63.8366 18.4745C63.5033 18.2964 63.242 18.0881 63.0526 17.8495C62.8632 17.6108 62.7173 17.3987 62.6151 17.2131H62.5128V21.8438H60.8139ZM62.4787 14.2074C62.4787 14.821 62.5677 15.3589 62.7457 15.821C62.9238 16.2832 63.1813 16.6449 63.5185 16.9063C63.8556 17.1638 64.2685 17.2926 64.7571 17.2926C65.2647 17.2926 65.6889 17.1582 66.0298 16.8892C66.3707 16.6165 66.6283 16.2472 66.8026 15.7813C66.9806 15.3154 67.0696 14.7907 67.0696 14.2074C67.0696 13.6317 66.9825 13.1146 66.8082 12.6563C66.6378 12.1979 66.3802 11.8362 66.0355 11.571C65.6946 11.3059 65.2685 11.1733 64.7571 11.1733C64.2647 11.1733 63.848 11.3002 63.5071 11.554C63.17 11.8078 62.9143 12.162 62.7401 12.6165C62.5658 13.071 62.4787 13.6013 62.4787 14.2074ZM70.1719 16.2642H71.9105C71.9332 16.6203 72.0942 16.8949 72.3935 17.0881C72.6965 17.2813 73.0885 17.3779 73.5696 17.3779C74.0582 17.3779 74.4749 17.2737 74.8196 17.0654C75.1643 16.8532 75.3366 16.5256 75.3366 16.0824C75.3366 15.8173 75.2704 15.5862 75.1378 15.3892C75.009 15.1885 74.8253 15.0332 74.5866 14.9233C74.3518 14.8135 74.0734 14.7585 73.7514 14.7585H72.331V13.4233H73.7514C74.2325 13.4233 74.5923 13.3135 74.831 13.0938C75.0696 12.8741 75.1889 12.5995 75.1889 12.2699C75.1889 11.9138 75.0601 11.6279 74.8026 11.412C74.5488 11.1923 74.1946 11.0824 73.7401 11.0824C73.2779 11.0824 72.8935 11.1866 72.5866 11.3949C72.2798 11.5995 72.1188 11.8646 72.1037 12.1904H70.3878C70.3991 11.7017 70.5469 11.2737 70.831 10.9063C71.1188 10.5351 71.5052 10.2472 71.9901 10.0426C72.4787 9.8343 73.0336 9.73014 73.6548 9.73014C74.3026 9.73014 74.8632 9.8343 75.3366 10.0426C75.8101 10.251 76.1757 10.5388 76.4332 10.9063C76.6946 11.2737 76.8253 11.696 76.8253 12.1733C76.8253 12.6544 76.6813 13.0483 76.3935 13.3551C76.1094 13.6582 75.7382 13.876 75.2798 14.0085V14.0995C75.617 14.1222 75.9162 14.2245 76.1776 14.4063C76.4389 14.5881 76.6435 14.8286 76.7912 15.1279C76.9389 15.4271 77.0128 15.7661 77.0128 16.1449C77.0128 16.679 76.8651 17.1411 76.5696 17.5313C76.2779 17.9214 75.8726 18.2226 75.3537 18.4347C74.8385 18.643 74.2495 18.7472 73.5866 18.7472C72.9427 18.7472 72.3651 18.6468 71.8537 18.446C71.3461 18.2415 70.9427 17.9536 70.6435 17.5824C70.348 17.2112 70.1908 16.7718 70.1719 16.2642ZM80.4318 16.1904L84.2784 9.84377H86.108V18.571H84.4432V12.2188L80.6136 18.571H78.767V9.84377H80.4318V16.1904ZM94.3068 13.4745V14.946H89.5795V13.4745H94.3068ZM90.0568 9.84377V18.571H88.392V9.84377H90.0568ZM95.4943 9.84377V18.571H93.8352V9.84377H95.4943ZM100.307 18.7642C99.7538 18.7642 99.2538 18.662 98.8068 18.4574C98.3598 18.2491 98.0057 17.9479 97.7443 17.554C97.4867 17.1601 97.358 16.6771 97.358 16.1051C97.358 15.6127 97.4527 15.2074 97.642 14.8892C97.8314 14.571 98.0871 14.3192 98.4091 14.1335C98.7311 13.9479 99.0909 13.8078 99.4886 13.7131C99.8864 13.6184 100.292 13.5464 100.705 13.4972C101.227 13.4366 101.652 13.3873 101.977 13.3495C102.303 13.3078 102.54 13.2415 102.688 13.1506C102.835 13.0597 102.909 12.912 102.909 12.7074V12.6676C102.909 12.1714 102.769 11.787 102.489 11.5142C102.212 11.2415 101.799 11.1051 101.25 11.1051C100.678 11.1051 100.227 11.232 99.8977 11.4858C99.572 11.7358 99.3466 12.0142 99.2216 12.321L97.625 11.9574C97.8144 11.4271 98.0909 10.9991 98.4545 10.6733C98.822 10.3438 99.2443 10.1051 99.7216 9.95741C100.199 9.80589 100.701 9.73014 101.227 9.73014C101.576 9.73014 101.945 9.7718 102.335 9.85514C102.729 9.93468 103.097 10.0824 103.438 10.2983C103.782 10.5142 104.064 10.8229 104.284 11.2245C104.504 11.6222 104.614 12.1392 104.614 12.7756V18.571H102.955V17.3779H102.886C102.777 17.5976 102.612 17.8135 102.392 18.0256C102.172 18.2377 101.89 18.4138 101.545 18.554C101.201 18.6942 100.788 18.7642 100.307 18.7642ZM100.676 17.4006C101.146 17.4006 101.547 17.3078 101.881 17.1222C102.218 16.9366 102.473 16.6942 102.648 16.3949C102.826 16.0919 102.915 15.768 102.915 15.4233V14.2983C102.854 14.3589 102.737 14.4157 102.562 14.4688C102.392 14.518 102.197 14.5616 101.977 14.5995C101.758 14.6335 101.544 14.6657 101.335 14.696C101.127 14.7226 100.953 14.7453 100.812 14.7642C100.483 14.8059 100.182 14.876 99.9091 14.9745C99.6402 15.0729 99.4242 15.215 99.2614 15.4006C99.1023 15.5824 99.0227 15.8248 99.0227 16.1279C99.0227 16.5483 99.178 16.8665 99.4886 17.0824C99.7992 17.2945 100.195 17.4006 100.676 17.4006Z" fill="#344051"/>
</svg>
