<svg width="91" height="25" viewBox="0 0 91 25" fill="none" xmlns="http://www.w3.org/2000/svg">
<path d="M14.4706 20.896C14.4706 20.5233 14.1684 20.221 13.7956 20.221H4.82353C4.54739 20.221 4.32353 19.9972 4.32353 19.721V5.42104C4.32353 5.1449 4.54739 4.92104 4.82353 4.92104H13.7956C14.1684 4.92104 14.4706 4.61884 14.4706 4.24604V4.24604C14.4706 3.87325 14.1684 3.57104 13.7956 3.57104H5C3.89543 3.57104 3 4.46648 3 5.57104V19.571C3 20.6756 3.89543 21.571 5 21.571H13.7956C14.1684 21.571 14.4706 21.2688 14.4706 20.896V20.896ZM12.8947 12.211C12.5468 12.211 12.2647 12.4931 12.2647 12.841V12.841C12.2647 13.189 12.5468 13.471 12.8947 13.471H18.4412L16.2698 15.6858C16.0056 15.9554 16.0056 16.3867 16.2698 16.6562V16.6562C16.5415 16.9334 16.9879 16.9334 17.2596 16.6562L20.3137 13.5411C20.6949 13.1523 20.6949 12.5298 20.3137 12.141L17.2596 9.02585C16.9879 8.74868 16.5415 8.74868 16.2698 9.02585V9.02585C16.0056 9.29535 16.0056 9.72674 16.2698 9.99624L18.4412 12.211H12.8947Z" fill="#141C24"/>
<path d="M41.2784 18.571V6.93468H45.5398C46.3655 6.93468 47.0492 7.07104 47.5909 7.34377C48.1326 7.61271 48.5379 7.97824 48.8068 8.44036C49.0758 8.8987 49.2102 9.41574 49.2102 9.9915C49.2102 10.4763 49.1212 10.8854 48.9432 11.2188C48.7652 11.5483 48.5265 11.8135 48.2273 12.0142C47.9318 12.2112 47.6061 12.3551 47.25 12.446V12.5597C47.6364 12.5786 48.0133 12.7036 48.3807 12.9347C48.7519 13.162 49.0587 13.4858 49.3011 13.9063C49.5436 14.3267 49.6648 14.8381 49.6648 15.4404C49.6648 16.0351 49.5246 16.5692 49.2443 17.0426C48.9678 17.5123 48.5398 17.8854 47.9602 18.162C47.3807 18.4347 46.6402 18.571 45.7386 18.571H41.2784ZM43.0341 17.0654H45.5682C46.4091 17.0654 47.0114 16.9025 47.375 16.5767C47.7386 16.251 47.9205 15.8438 47.9205 15.3551C47.9205 14.9877 47.8277 14.6506 47.642 14.3438C47.4564 14.037 47.1913 13.7926 46.8466 13.6108C46.5057 13.429 46.1004 13.3381 45.6307 13.3381H43.0341V17.0654ZM43.0341 11.9688H45.3864C45.7803 11.9688 46.1345 11.893 46.4489 11.7415C46.767 11.59 47.0189 11.3779 47.2045 11.1051C47.3939 10.8286 47.4886 10.5029 47.4886 10.1279C47.4886 9.6468 47.3201 9.24339 46.983 8.91764C46.6458 8.59188 46.1288 8.429 45.4318 8.429H43.0341V11.9688ZM52.8892 12.8438H55.4233C56.4915 12.8438 57.3134 13.1089 57.8892 13.6392C58.465 14.1695 58.7528 14.8532 58.7528 15.6904C58.7528 16.2358 58.6241 16.7263 58.3665 17.162C58.1089 17.5976 57.732 17.9423 57.2358 18.196C56.7396 18.446 56.1354 18.571 55.4233 18.571H51.6108V9.84377H53.2756V17.1051H55.4233C55.9119 17.1051 56.3134 16.9782 56.6278 16.7245C56.9422 16.4669 57.0994 16.1392 57.0994 15.7415C57.0994 15.321 56.9422 14.9782 56.6278 14.7131C56.3134 14.4442 55.9119 14.3097 55.4233 14.3097H52.8892V12.8438ZM59.9915 18.571V9.84377H61.6903V18.571H59.9915ZM65.6349 16.1904L69.4815 9.84377H71.3111V18.571H69.6463V12.2188L65.8168 18.571H63.9702V9.84377H65.6349V16.1904ZM68.7543 6.88923H70.152C70.152 7.52938 69.9247 8.05021 69.4702 8.45173C69.0194 8.84945 68.4096 9.04832 67.6406 9.04832C66.8755 9.04832 66.2675 8.84945 65.8168 8.45173C65.366 8.05021 65.1406 7.52938 65.1406 6.88923H66.5327C66.5327 7.17332 66.616 7.42521 66.7827 7.64491C66.9493 7.86082 67.2353 7.96877 67.6406 7.96877C68.0384 7.96877 68.3224 7.86082 68.4929 7.64491C68.6671 7.429 68.7543 7.17711 68.7543 6.88923ZM72.5128 11.3097V9.84377H79.8764V11.3097H77.0298V18.571H75.3707V11.3097H72.5128ZM83.3381 16.1904L87.1847 9.84377H89.0142V18.571H87.3494V12.2188L83.5199 18.571H81.6733V9.84377H83.3381V16.1904Z" fill="#344051"/>
</svg>
