<svg width="98" height="25" viewBox="0 0 98 25" fill="none" xmlns="http://www.w3.org/2000/svg">
<path d="M15.9239 16.6948C16.2375 16.4097 16.2492 15.9202 15.9494 15.6205L12.7 12.371V7.32104C12.7 6.90683 12.3642 6.57104 11.95 6.57104C11.5358 6.57104 11.2 6.90683 11.2 7.32104V12.5568C11.2 12.822 11.3054 13.0764 11.4929 13.2639L14.8994 16.6705C15.1797 16.9507 15.6306 16.9614 15.9239 16.6948Z" fill="#141C24"/>
<path d="M12 22.571C10.6333 22.571 9.34167 22.3085 8.125 21.7835C6.90833 21.2585 5.84583 20.5419 4.9375 19.6335C4.02917 18.7252 3.3125 17.6627 2.7875 16.446C2.2625 15.2294 2 13.9294 2 12.546C2 11.1794 2.2625 9.88771 2.7875 8.67105C3.3125 7.45438 4.02917 6.39605 4.9375 5.49605C5.84583 4.59605 6.90833 3.88354 8.125 3.35854C9.34167 2.83354 10.6417 2.57104 12.025 2.57104C13.3917 2.57104 14.6833 2.83354 15.9 3.35854C17.1167 3.88354 18.175 4.59605 19.075 5.49605C19.975 6.39605 20.6875 7.45438 21.2125 8.67105C21.7375 9.88771 22 11.1877 22 12.571C22 13.9377 21.7375 15.2294 21.2125 16.446C20.6875 17.6627 19.975 18.7252 19.075 19.6335C18.175 20.5419 17.1167 21.2585 15.9 21.7835C14.6833 22.3085 13.3833 22.571 12 22.571ZM12 21.071C14.3667 21.071 16.375 20.2419 18.025 18.5835C19.675 16.9252 20.5 14.921 20.5 12.571C20.5 10.2044 19.675 8.19604 18.025 6.54604C16.375 4.89604 14.3667 4.07104 12 4.07104C9.65 4.07104 7.64583 4.89604 5.9875 6.54604C4.32917 8.19604 3.5 10.2044 3.5 12.571C3.5 14.921 4.32917 16.9252 5.9875 18.5835C7.64583 20.2419 9.65 21.071 12 21.071Z" fill="#141C24"/>
<path d="M45.1705 18.7301C44.3902 18.7301 43.6932 18.5957 43.0795 18.3267C42.4697 18.0578 41.9867 17.6847 41.6307 17.2074C41.2784 16.7263 41.089 16.1695 41.0625 15.537H42.8466C42.8693 15.8817 42.9848 16.1809 43.1932 16.4347C43.4053 16.6847 43.6818 16.8779 44.0227 17.0142C44.3636 17.1506 44.7424 17.2188 45.1591 17.2188C45.6174 17.2188 46.0227 17.1392 46.375 16.9801C46.7311 16.821 47.0095 16.5995 47.2102 16.3154C47.411 16.0275 47.5114 15.696 47.5114 15.321C47.5114 14.9309 47.411 14.5881 47.2102 14.2926C47.0133 13.9934 46.7235 13.7585 46.3409 13.5881C45.9621 13.4176 45.5038 13.3324 44.9659 13.3324H43.983V11.9006H44.9659C45.3977 11.9006 45.7765 11.8229 46.1023 11.6676C46.4318 11.5123 46.6894 11.2964 46.875 11.0199C47.0606 10.7396 47.1534 10.412 47.1534 10.037C47.1534 9.67711 47.072 9.36461 46.9091 9.09945C46.75 8.83051 46.5227 8.62029 46.2273 8.46877C45.9356 8.31726 45.5909 8.2415 45.1932 8.2415C44.8144 8.2415 44.4602 8.31157 44.1307 8.45173C43.8049 8.58809 43.5398 8.78506 43.3352 9.04264C43.1307 9.29642 43.0208 9.60135 43.0057 9.95741H41.3068C41.3258 9.32862 41.5114 8.77559 41.8636 8.29832C42.2197 7.82104 42.6894 7.44794 43.2727 7.179C43.8561 6.91006 44.5038 6.77559 45.2159 6.77559C45.9621 6.77559 46.6061 6.92142 47.1477 7.21309C47.6932 7.50097 48.1136 7.88544 48.4091 8.3665C48.7083 8.84756 48.8561 9.37407 48.8523 9.94604C48.8561 10.5976 48.6742 11.1506 48.3068 11.6051C47.9432 12.0597 47.4583 12.3646 46.8523 12.5199V12.6108C47.625 12.7282 48.2235 13.0351 48.6477 13.5313C49.0758 14.0275 49.2879 14.643 49.2841 15.3779C49.2879 16.018 49.1098 16.5919 48.75 17.0995C48.3939 17.607 47.9072 18.0067 47.2898 18.2983C46.6723 18.5862 45.9659 18.7301 45.1705 18.7301ZM53.9943 18.7642C53.4413 18.7642 52.9413 18.662 52.4943 18.4574C52.0473 18.2491 51.6932 17.9479 51.4318 17.554C51.1742 17.1601 51.0455 16.6771 51.0455 16.1051C51.0455 15.6127 51.1402 15.2074 51.3295 14.8892C51.5189 14.571 51.7746 14.3192 52.0966 14.1335C52.4186 13.9479 52.7784 13.8078 53.1761 13.7131C53.5739 13.6184 53.9792 13.5464 54.392 13.4972C54.9148 13.4366 55.339 13.3873 55.6648 13.3495C55.9905 13.3078 56.2273 13.2415 56.375 13.1506C56.5227 13.0597 56.5966 12.912 56.5966 12.7074V12.6676C56.5966 12.1714 56.4564 11.787 56.1761 11.5142C55.8996 11.2415 55.4867 11.1051 54.9375 11.1051C54.3655 11.1051 53.9148 11.232 53.5852 11.4858C53.2595 11.7358 53.0341 12.0142 52.9091 12.321L51.3125 11.9574C51.5019 11.4271 51.7784 10.9991 52.142 10.6733C52.5095 10.3438 52.9318 10.1051 53.4091 9.95741C53.8864 9.80589 54.3883 9.73014 54.9148 9.73014C55.2633 9.73014 55.6326 9.7718 56.0227 9.85514C56.4167 9.93468 56.7841 10.0824 57.125 10.2983C57.4697 10.5142 57.7519 10.8229 57.9716 11.2245C58.1913 11.6222 58.3011 12.1392 58.3011 12.7756V18.571H56.642V17.3779H56.5739C56.464 17.5976 56.2992 17.8135 56.0795 18.0256C55.8598 18.2377 55.5777 18.4138 55.233 18.554C54.8883 18.6942 54.4754 18.7642 53.9943 18.7642ZM54.3636 17.4006C54.8333 17.4006 55.2348 17.3078 55.5682 17.1222C55.9053 16.9366 56.161 16.6942 56.3352 16.3949C56.5133 16.0919 56.6023 15.768 56.6023 15.4233V14.2983C56.5417 14.3589 56.4242 14.4157 56.25 14.4688C56.0795 14.518 55.8845 14.5616 55.6648 14.5995C55.4451 14.6335 55.2311 14.6657 55.0227 14.696C54.8144 14.7226 54.6402 14.7453 54.5 14.7642C54.1705 14.8059 53.8693 14.876 53.5966 14.9745C53.3277 15.0729 53.1117 15.215 52.9489 15.4006C52.7898 15.5824 52.7102 15.8248 52.7102 16.1279C52.7102 16.5483 52.8655 16.8665 53.1761 17.0824C53.4867 17.2945 53.8826 17.4006 54.3636 17.4006ZM60.5639 18.571V9.84377H62.2628V13.5029H63.081L65.9616 9.84377H68.0639L64.6832 14.0881L68.1037 18.571H65.9957L63.3651 15.0824H62.2628V18.571H60.5639ZM71.9631 18.7642C71.41 18.7642 70.91 18.662 70.4631 18.4574C70.0161 18.2491 69.6619 17.9479 69.4006 17.554C69.143 17.1601 69.0142 16.6771 69.0142 16.1051C69.0142 15.6127 69.1089 15.2074 69.2983 14.8892C69.4877 14.571 69.7434 14.3192 70.0653 14.1335C70.3873 13.9479 70.7472 13.8078 71.1449 13.7131C71.5426 13.6184 71.9479 13.5464 72.3608 13.4972C72.8835 13.4366 73.3078 13.3873 73.6335 13.3495C73.9593 13.3078 74.196 13.2415 74.3438 13.1506C74.4915 13.0597 74.5653 12.912 74.5653 12.7074V12.6676C74.5653 12.1714 74.4252 11.787 74.1449 11.5142C73.8684 11.2415 73.4555 11.1051 72.9062 11.1051C72.3343 11.1051 71.8835 11.232 71.554 11.4858C71.2282 11.7358 71.0028 12.0142 70.8778 12.321L69.2812 11.9574C69.4706 11.4271 69.7472 10.9991 70.1108 10.6733C70.4782 10.3438 70.9006 10.1051 71.3778 9.95741C71.8551 9.80589 72.357 9.73014 72.8835 9.73014C73.232 9.73014 73.6013 9.7718 73.9915 9.85514C74.3854 9.93468 74.7528 10.0824 75.0938 10.2983C75.4384 10.5142 75.7206 10.8229 75.9403 11.2245C76.16 11.6222 76.2699 12.1392 76.2699 12.7756V18.571H74.6108V17.3779H74.5426C74.4328 17.5976 74.268 17.8135 74.0483 18.0256C73.8286 18.2377 73.5464 18.4138 73.2017 18.554C72.857 18.6942 72.4441 18.7642 71.9631 18.7642ZM72.3324 17.4006C72.8021 17.4006 73.2036 17.3078 73.5369 17.1222C73.8741 16.9366 74.1297 16.6942 74.304 16.3949C74.482 16.0919 74.571 15.768 74.571 15.4233V14.2983C74.5104 14.3589 74.393 14.4157 74.2188 14.4688C74.0483 14.518 73.8532 14.5616 73.6335 14.5995C73.4138 14.6335 73.1998 14.6657 72.9915 14.696C72.7831 14.7226 72.6089 14.7453 72.4688 14.7642C72.1392 14.8059 71.8381 14.876 71.5653 14.9745C71.2964 15.0729 71.0805 15.215 70.9176 15.4006C70.7585 15.5824 70.679 15.8248 70.679 16.1279C70.679 16.5483 70.8343 16.8665 71.1449 17.0824C71.4555 17.2945 71.8513 17.4006 72.3324 17.4006ZM78.0156 16.2642H79.7543C79.777 16.6203 79.938 16.8949 80.2372 17.0881C80.5402 17.2813 80.9323 17.3779 81.4134 17.3779C81.902 17.3779 82.3187 17.2737 82.6634 17.0654C83.008 16.8532 83.1804 16.5256 83.1804 16.0824C83.1804 15.8173 83.1141 15.5862 82.9815 15.3892C82.8527 15.1885 82.669 15.0332 82.4304 14.9233C82.1955 14.8135 81.9171 14.7585 81.5952 14.7585H80.1747V13.4233H81.5952C82.0762 13.4233 82.4361 13.3135 82.6747 13.0938C82.9134 12.8741 83.0327 12.5995 83.0327 12.2699C83.0327 11.9138 82.9039 11.6279 82.6463 11.412C82.3925 11.1923 82.0384 11.0824 81.5838 11.0824C81.1217 11.0824 80.7372 11.1866 80.4304 11.3949C80.1236 11.5995 79.9626 11.8646 79.9474 12.1904H78.2315C78.2429 11.7017 78.3906 11.2737 78.6747 10.9063C78.9626 10.5351 79.349 10.2472 79.8338 10.0426C80.3224 9.8343 80.8774 9.73014 81.4986 9.73014C82.1463 9.73014 82.7069 9.8343 83.1804 10.0426C83.6539 10.251 84.0194 10.5388 84.277 10.9063C84.5384 11.2737 84.669 11.696 84.669 12.1733C84.669 12.6544 84.5251 13.0483 84.2372 13.3551C83.9531 13.6582 83.5819 13.876 83.1236 14.0085V14.0995C83.4607 14.1222 83.7599 14.2245 84.0213 14.4063C84.2827 14.5881 84.4872 14.8286 84.6349 15.1279C84.7827 15.4271 84.8565 15.7661 84.8565 16.1449C84.8565 16.679 84.7088 17.1411 84.4134 17.5313C84.1217 17.9214 83.7164 18.2226 83.1974 18.4347C82.6823 18.643 82.0933 18.7472 81.4304 18.7472C80.7865 18.7472 80.2088 18.6468 79.6974 18.446C79.1899 18.2415 78.7865 17.9536 78.4872 17.5824C78.1918 17.2112 78.0346 16.7718 78.0156 16.2642ZM87.8892 12.8438H90.4233C91.4915 12.8438 92.3134 13.1089 92.8892 13.6392C93.465 14.1695 93.7528 14.8532 93.7528 15.6904C93.7528 16.2358 93.6241 16.7263 93.3665 17.162C93.1089 17.5976 92.732 17.9423 92.2358 18.196C91.7396 18.446 91.1354 18.571 90.4233 18.571H86.6108V9.84377H88.2756V17.1051H90.4233C90.9119 17.1051 91.3134 16.9782 91.6278 16.7245C91.9422 16.4669 92.0994 16.1392 92.0994 15.7415C92.0994 15.321 91.9422 14.9782 91.6278 14.7131C91.3134 14.4442 90.9119 14.3097 90.4233 14.3097H87.8892V12.8438ZM94.9915 18.571V9.84377H96.6903V18.571H94.9915Z" fill="#344051"/>
</svg>
