<svg width="111" height="25" viewBox="0 0 111 25" fill="none" xmlns="http://www.w3.org/2000/svg">
<path fill-rule="evenodd" clip-rule="evenodd" d="M16 8.57104C16 10.7802 14.2091 12.571 12 12.571C9.79086 12.571 8 10.7802 8 8.57104C8 6.36191 9.79086 4.57104 12 4.57104C14.2091 4.57104 16 6.36191 16 8.57104ZM14.5 8.57104C14.5 9.95176 13.3807 11.071 12 11.071C10.6193 11.071 9.5 9.95176 9.5 8.57104C9.5 7.19033 10.6193 6.07104 12 6.07104C13.3807 6.07104 14.5 7.19033 14.5 8.57104Z" fill="#141C24"/>
<path fill-rule="evenodd" clip-rule="evenodd" d="M4 18.343V20.571H20V18.343C20 16.6757 18.9657 15.1832 17.4045 14.5977L17.2669 14.5461C13.8711 13.2727 10.1289 13.2727 6.73315 14.5461L6.59551 14.5977C5.03429 15.1832 4 16.6757 4 18.343ZM7.25984 15.9506C10.316 14.8045 13.684 14.8045 16.7402 15.9506L16.8778 16.0022C17.8536 16.3681 18.5 17.3009 18.5 18.343V19.071H5.5V18.343C5.5 17.3009 6.14643 16.3681 7.12219 16.0022L7.25984 15.9506Z" fill="#141C24"/>
<path d="M50.375 6.93468V18.571H48.625V8.43468H43.1477V18.571H41.3977V6.93468H50.375ZM52.9233 21.8438V9.84377H54.5824V11.2585H54.7244C54.8229 11.0767 54.965 10.8665 55.1506 10.6279C55.3362 10.3892 55.5938 10.1809 55.9233 10.0029C56.2528 9.82104 56.6884 9.73014 57.2301 9.73014C57.9347 9.73014 58.5634 9.90817 59.1165 10.2642C59.6695 10.6203 60.1032 11.1335 60.4176 11.804C60.7358 12.4745 60.8949 13.2813 60.8949 14.2245C60.8949 15.1676 60.7377 15.9763 60.4233 16.6506C60.1089 17.321 59.6771 17.8381 59.1278 18.2017C58.5786 18.5616 57.9517 18.7415 57.2472 18.7415C56.7169 18.7415 56.2831 18.6525 55.946 18.4745C55.6127 18.2964 55.3513 18.0881 55.1619 17.8495C54.9725 17.6108 54.8267 17.3987 54.7244 17.2131H54.6222V21.8438H52.9233ZM54.5881 14.2074C54.5881 14.821 54.6771 15.3589 54.8551 15.821C55.0331 16.2832 55.2907 16.6449 55.6278 16.9063C55.965 17.1638 56.3778 17.2926 56.8665 17.2926C57.3741 17.2926 57.7983 17.1582 58.1392 16.8892C58.4801 16.6165 58.7377 16.2472 58.9119 15.7813C59.09 15.3154 59.179 14.7907 59.179 14.2074C59.179 13.6317 59.0919 13.1146 58.9176 12.6563C58.7472 12.1979 58.4896 11.8362 58.1449 11.571C57.804 11.3059 57.3778 11.1733 56.8665 11.1733C56.3741 11.1733 55.9574 11.3002 55.6165 11.554C55.2794 11.8078 55.0237 12.162 54.8494 12.6165C54.6752 13.071 54.5881 13.6013 54.5881 14.2074ZM66.4744 18.7472C65.6563 18.7472 64.9422 18.5597 64.3324 18.1847C63.7225 17.8097 63.2491 17.2851 62.9119 16.6108C62.5748 15.9366 62.4062 15.1487 62.4062 14.2472C62.4062 13.3419 62.5748 12.5502 62.9119 11.8722C63.2491 11.1942 63.7225 10.6676 64.3324 10.2926C64.9422 9.91764 65.6563 9.73014 66.4744 9.73014C67.2926 9.73014 68.0066 9.91764 68.6165 10.2926C69.2263 10.6676 69.6998 11.1942 70.0369 11.8722C70.3741 12.5502 70.5426 13.3419 70.5426 14.2472C70.5426 15.1487 70.3741 15.9366 70.0369 16.6108C69.6998 17.2851 69.2263 17.8097 68.6165 18.1847C68.0066 18.5597 67.2926 18.7472 66.4744 18.7472ZM66.4801 17.321C67.0104 17.321 67.4498 17.1809 67.7983 16.9006C68.1468 16.6203 68.4044 16.2472 68.571 15.7813C68.7415 15.3154 68.8267 14.8021 68.8267 14.2415C68.8267 13.6847 68.7415 13.1733 68.571 12.7074C68.4044 12.2377 68.1468 11.8608 67.7983 11.5767C67.4498 11.2926 67.0104 11.1506 66.4801 11.1506C65.946 11.1506 65.5028 11.2926 65.1506 11.5767C64.8021 11.8608 64.5426 12.2377 64.3722 12.7074C64.2055 13.1733 64.1222 13.6847 64.1222 14.2415C64.1222 14.8021 64.2055 15.3154 64.3722 15.7813C64.5426 16.2472 64.8021 16.6203 65.1506 16.9006C65.5028 17.1809 65.946 17.321 66.4801 17.321ZM76.1946 21.5426V6.93468H77.8935V21.5426H76.1946ZM76.1946 18.7472C75.5772 18.7472 75.0147 18.6411 74.5071 18.429C73.9995 18.2131 73.562 17.9063 73.1946 17.5085C72.8272 17.1108 72.5431 16.6354 72.3423 16.0824C72.1454 15.5294 72.0469 14.9176 72.0469 14.2472C72.0469 13.5692 72.1454 12.9536 72.3423 12.4006C72.5431 11.8476 72.8272 11.3722 73.1946 10.9745C73.562 10.5767 73.9995 10.2699 74.5071 10.054C75.0147 9.83809 75.5772 9.73014 76.1946 9.73014H76.6151V18.7472H76.1946ZM76.1946 17.3154H76.4332V11.162H76.1946C75.7855 11.162 75.4295 11.2453 75.1264 11.412C74.8234 11.5748 74.5715 11.8002 74.3707 12.0881C74.17 12.3722 74.0185 12.6998 73.9162 13.071C73.8177 13.4423 73.7685 13.8343 73.7685 14.2472C73.7685 14.8002 73.8575 15.3097 74.0355 15.7756C74.2135 16.2377 74.4825 16.6108 74.8423 16.8949C75.2022 17.1752 75.6529 17.3154 76.1946 17.3154ZM77.8935 18.7472H77.4673V9.73014H77.8935C78.5109 9.73014 79.0734 9.83809 79.581 10.054C80.0885 10.2699 80.5241 10.5767 80.8878 10.9745C81.2552 11.3722 81.5374 11.8476 81.7344 12.4006C81.9351 12.9536 82.0355 13.5692 82.0355 14.2472C82.0355 14.9176 81.9351 15.5294 81.7344 16.0824C81.5374 16.6354 81.2552 17.1108 80.8878 17.5085C80.5241 17.9063 80.0885 18.2131 79.581 18.429C79.0734 18.6411 78.5109 18.7472 77.8935 18.7472ZM77.8935 17.3154C78.3026 17.3154 78.6586 17.2358 78.9616 17.0767C79.2647 16.9138 79.5166 16.6904 79.7173 16.4063C79.9181 16.1184 80.0677 15.7907 80.1662 15.4233C80.2647 15.0521 80.3139 14.6601 80.3139 14.2472C80.3139 13.6979 80.2249 13.1904 80.0469 12.7245C79.8726 12.2548 79.6056 11.8779 79.2457 11.5938C78.8859 11.3059 78.4351 11.162 77.8935 11.162H77.6491V17.3154H77.8935ZM85.5881 16.1904L89.4347 9.84377H91.2642V18.571H89.5994V12.2188L85.7699 18.571H83.9233V9.84377H85.5881V16.1904ZM92.8608 18.571L92.8551 17.0995H93.1676C93.41 17.0995 93.6127 17.0483 93.7756 16.946C93.9422 16.84 94.0786 16.662 94.1847 16.412C94.2907 16.162 94.3722 15.8173 94.429 15.3779C94.4858 14.9347 94.5275 14.3779 94.554 13.7074L94.7074 9.84377H100.798V18.571H99.1335V11.3097H96.2812L96.1449 14.2756C96.1108 14.9953 96.0369 15.6241 95.9233 16.162C95.8134 16.6998 95.6525 17.1487 95.4403 17.5085C95.2282 17.8646 94.9555 18.1317 94.6222 18.3097C94.2888 18.4839 93.8835 18.571 93.4062 18.571H92.8608ZM104.342 12.8438H106.876C107.945 12.8438 108.767 13.1089 109.342 13.6392C109.918 14.1695 110.206 14.8532 110.206 15.6904C110.206 16.2358 110.077 16.7263 109.82 17.162C109.562 17.5976 109.185 17.9423 108.689 18.196C108.193 18.446 107.589 18.571 106.876 18.571H103.064V9.84377H104.729V17.1051H106.876C107.365 17.1051 107.767 16.9782 108.081 16.7245C108.395 16.4669 108.553 16.1392 108.553 15.7415C108.553 15.321 108.395 14.9782 108.081 14.7131C107.767 14.4442 107.365 14.3097 106.876 14.3097H104.342V12.8438Z" fill="#344051"/>
</svg>
